<svg xmlns="http://www.w3.org/2000/svg" xmlns:xlink="http://www.w3.org/1999/xlink" fill="none" version="1.1" width="1024" height="1023.9999389648438" viewBox="0 0 1024 1023.9999389648438"><g><g><rect x="0" y="0" width="1024" height="1024" rx="300" fill="#FFFFFF" fill-opacity="1"/><rect x="20" y="20" width="984" height="984" rx="280" fill-opacity="0" stroke-opacity="1" stroke="#000000" fill="none" stroke-width="40"/></g><g><rect x="792" y="411.99993896484375" width="115" height="200" rx="11.7647123336792" fill="#F25325" fill-opacity="1"/><path d="M793.28228,418.42358896484376C792,420.9401989648438,792,424.2346389648437,792,433.34013896484373L792,590.6599389648437C792,599.7649389648437,792,603.0599389648437,793.28228,605.5759389648438C794.4102,607.7899389648437,796.20997,609.5899389648438,798.42365,610.7179389648437C800.94026,611.9999389648438,804.2347,611.9999389648438,813.3402,611.9999389648438L885.6599,611.9999389648438C894.765,611.9999389648438,898.06,611.9999389648438,900.576,610.7179389648437C902.79,609.5899389648438,904.59,607.7899389648437,905.718,605.5759389648438C907,603.0599389648437,907,599.7649389648437,907,590.6599389648437L907,433.34013896484373C907,424.2346389648437,907,420.9401989648438,905.718,418.42358896484376C904.59,416.20990896484375,902.79,414.4101389648437,900.576,413.28221896484376C898.06,411.99993896484375,894.765,411.99993896484375,885.6599,411.99993896484375L813.3402,411.99993896484375C804.2347,411.99993896484375,800.94026,411.99993896484375,798.42365,413.28221896484376C796.20997,414.4101389648437,794.4102,416.20990896484375,793.28228,418.42358896484376ZM819.0588,439.05873896484377L819.0588,584.9409389648438L879.9412,584.9409389648438L879.9412,439.05873896484377L819.0588,439.05873896484377Z" fill-rule="evenodd" fill="#000000" fill-opacity="1"/></g><g><rect x="622" y="261.99993896484375" width="140" height="500" rx="11.7647123336792" fill="#FA8000" fill-opacity="1"/><path d="M623.28228,268.42358896484376C622,270.9401989648438,622,274.2346389648437,622,283.34013896484373L622,740.6599389648438C622,749.7649389648437,622,753.0599389648437,623.28228,755.5759389648438C624.4102,757.7899389648437,626.20998,759.5899389648437,628.42365,760.7179389648438C630.94026,761.9999389648438,634.2347,761.9999389648438,643.3402,761.9999389648438L740.66,761.9999389648438C749.765,761.9999389648438,753.06,761.9999389648438,755.576,760.7179389648438C757.79,759.5899389648437,759.59,757.7899389648437,760.718,755.5759389648438C762,753.0599389648437,762,749.7649389648437,762,740.6599389648438L762,283.34013896484373C762,274.2346389648437,762,270.9401989648438,760.718,268.42358896484376C759.59,266.20990896484375,757.79,264.4101389648437,755.576,263.28221896484376C753.06,261.99993896484375,749.765,261.99993896484375,740.66,261.99993896484375L643.3402,261.99993896484375C634.2347,261.99993896484375,630.94026,261.99993896484375,628.42365,263.28221896484376C626.20997,264.4101389648437,624.4102,266.20990896484375,623.28228,268.42358896484376ZM649.0588,289.05873896484377L649.0588,734.9409389648438L734.941,734.9409389648438L734.941,289.05873896484377L649.0588,289.05873896484377Z" fill-rule="evenodd" fill="#000000" fill-opacity="1"/></g><g><rect x="432" y="171.99993896484375" width="160" height="680" rx="11.7647123336792" fill="#FECA25" fill-opacity="1"/><path d="M433.28228,178.42358896484376C432,180.94019896484374,432,184.23463896484375,432,193.34013896484376L432,830.6599389648437C432,839.7649389648437,432,843.0599389648437,433.28228,845.5759389648438C434.4102,847.7899389648437,436.20998,849.5899389648438,438.42365,850.7179389648437C440.94026,851.9999389648438,444.2347,851.9999389648438,453.3402,851.9999389648438L570.66,851.9999389648438C579.765,851.9999389648438,583.06,851.9999389648438,585.576,850.7179389648437C587.79,849.5899389648438,589.59,847.7899389648437,590.718,845.5759389648438C592,843.0599389648437,592,839.7649389648437,592,830.6599389648437L592,193.34013896484376C592,184.23463896484375,592,180.94019896484374,590.718,178.42358896484376C589.59,176.20990896484375,587.79,174.41013896484375,585.576,173.28221896484376C583.06,171.99993896484375,579.765,171.99993896484375,570.66,171.99993896484375L453.3402,171.99993896484375C444.2347,171.99993896484375,440.94026,171.99993896484375,438.42365,173.28221896484376C436.20997,174.41013896484375,434.4102,176.20990896484375,433.28228,178.42358896484376ZM459.0588,199.05873896484374L459.0588,824.9409389648438L564.941,824.9409389648438L564.941,199.05873896484374L459.0588,199.05873896484374Z" fill-rule="evenodd" fill="#000000" fill-opacity="1"/></g><g><rect x="262" y="261.99993896484375" width="140" height="500" rx="11.7647123336792" fill="#80BC06" fill-opacity="1"/><path d="M263.28228,268.42358896484376C262,270.9401989648438,262,274.2346389648437,262,283.34013896484373L262,740.6599389648438C262,749.7649389648437,262,753.0599389648437,263.28228,755.5759389648438C264.4102,757.7899389648437,266.20998,759.5899389648437,268.42365,760.7179389648438C270.94026,761.9999389648438,274.2347,761.9999389648438,283.3402,761.9999389648438L380.65999999999997,761.9999389648438C389.765,761.9999389648438,393.06,761.9999389648438,395.576,760.7179389648438C397.78999999999996,759.5899389648437,399.59000000000003,757.7899389648437,400.71799999999996,755.5759389648438C402,753.0599389648437,402,749.7649389648437,402,740.6599389648438L402,283.34013896484373C402,274.2346389648437,402,270.9401989648438,400.71799999999996,268.42358896484376C399.59000000000003,266.20990896484375,397.78999999999996,264.4101389648437,395.576,263.28221896484376C393.06,261.99993896484375,389.765,261.99993896484375,380.65999999999997,261.99993896484375L283.3402,261.99993896484375C274.2347,261.99993896484375,270.94026,261.99993896484375,268.42365,263.28221896484376C266.20997,264.4101389648437,264.4102,266.20990896484375,263.28228,268.42358896484376ZM289.0588,289.05873896484377L289.0588,734.9409389648438L374.94100000000003,734.9409389648438L374.94100000000003,289.05873896484377L289.0588,289.05873896484377Z" fill-rule="evenodd" fill="#000000" fill-opacity="1"/></g><g><rect x="117" y="411.99993896484375" width="115" height="200" rx="11.7647123336792" fill="#05A6F0" fill-opacity="1"/><path d="M118.28228,418.42358896484376C117,420.9401989648438,117,424.2346389648437,117,433.34013896484373L117,590.6599389648437C117,599.7649389648437,117,603.0599389648437,118.28228,605.5759389648438C119.4102,607.7899389648437,121.20997,609.5899389648438,123.42365,610.7179389648437C125.94026,611.9999389648438,129.2347,611.9999389648438,138.3402,611.9999389648438L210.6599,611.9999389648438C219.765,611.9999389648438,223.06,611.9999389648438,225.576,610.7179389648437C227.79000000000002,609.5899389648438,229.59,607.7899389648437,230.71800000000002,605.5759389648438C232,603.0599389648437,232,599.7649389648437,232,590.6599389648437L232,433.34013896484373C232,424.2346389648437,232,420.9401989648438,230.71800000000002,418.42358896484376C229.59,416.20990896484375,227.79000000000002,414.4101389648437,225.576,413.28221896484376C223.06,411.99993896484375,219.765,411.99993896484375,210.6599,411.99993896484375L138.3402,411.99993896484375C129.2347,411.99993896484375,125.94026,411.99993896484375,123.42365,413.28221896484376C121.20997,414.4101389648437,119.4102,416.20990896484375,118.28228,418.42358896484376ZM144.0588,439.05873896484377L144.0588,584.9409389648438L204.94119999999998,584.9409389648438L204.94119999999998,439.05873896484377L144.0588,439.05873896484377Z" fill-rule="evenodd" fill="#000000" fill-opacity="1"/></g></g></svg>